<svg width="72" height="72" viewBox="0 0 72 72" fill="none" xmlns="http://www.w3.org/2000/svg">
<circle cx="36" cy="36" r="36" fill="#5592EB"/>
<circle opacity="0.3" cx="36" cy="36" r="32.5" fill="#5592EB" stroke="white"/>
<g clip-path="url(#clip0_7884_965)">
<path fill-rule="evenodd" clip-rule="evenodd" d="M33.1561 50.685H38.8448V50.7169C38.8448 51.4219 38.2673 51.9994 37.5623 51.9994H34.4392C33.7342 51.9994 33.1567 51.4219 33.1567 50.7169V50.685H33.1561ZM35.9998 27.0037C31.1723 27.0037 27.2567 30.9194 27.2567 35.7487C27.2567 39.4319 28.9648 40.7575 30.6917 42.7806C31.1029 43.2625 31.4161 43.7744 31.6361 44.32C31.7511 44.2987 31.8698 44.29 31.9904 44.29H32.7486V39.1844C32.7486 39.1794 32.7486 39.1719 32.7467 39.1669C32.7433 39.162 32.7391 39.1577 32.7342 39.1544C31.5579 38.18 30.8792 36.7394 30.8792 35.2106C30.8792 33.2669 31.9779 31.4956 33.7154 30.6275C34.1404 30.415 34.6404 30.4381 35.0461 30.6875C35.4517 30.9388 35.6948 31.3731 35.6948 31.8512V34.8138C35.6948 34.98 35.8348 35.1187 35.9998 35.1187C36.1661 35.1187 36.3061 34.9806 36.3061 34.8138V31.8512C36.3061 31.3731 36.5486 30.9388 36.9548 30.6875C37.3604 30.4375 37.8586 30.4144 38.2854 30.6275C40.0236 31.4956 41.1217 33.2675 41.1217 35.2106C41.1217 36.7394 40.4429 38.18 39.2667 39.1544C39.2629 39.1562 39.2579 39.1613 39.2542 39.1669C39.2523 39.1719 39.2523 39.1794 39.2523 39.1844V44.29H40.0104C40.1311 44.29 40.2498 44.2987 40.3648 44.32C40.5829 43.7744 40.8979 43.2625 41.3092 42.7806C43.0367 40.7575 44.7442 39.4325 44.7442 35.7487C44.7442 30.9187 40.8292 27.0037 35.9998 27.0037ZM40.0104 45.305H31.9904C31.3917 45.305 30.9011 45.7956 30.9011 46.3962C30.9011 46.995 31.3917 47.4875 31.9904 47.4875H32.5254C31.9267 47.4875 31.4342 47.9781 31.4342 48.5769C31.4342 49.1775 31.9267 49.6681 32.5254 49.6681H39.4754C40.0742 49.6681 40.5648 49.1775 40.5648 48.5769C40.5648 47.9781 40.0742 47.4875 39.4754 47.4875H40.0104C40.6092 47.4875 41.0998 46.995 41.0998 46.3962C41.1004 45.7956 40.6092 45.305 40.0104 45.305ZM35.9998 24.7625C36.2817 24.7625 36.5086 24.5356 36.5086 24.2556V20.5088C36.5086 20.2269 36.2817 20 35.9998 20C35.7198 20 35.4929 20.2269 35.4929 20.5088V24.2556C35.4929 24.5356 35.7198 24.7625 35.9998 24.7625ZM44.4861 27.98L47.1367 25.3313C47.3348 25.1331 47.3348 24.8106 47.1367 24.6119C46.9386 24.415 46.6161 24.415 46.4173 24.6119L43.7686 27.2625C43.675 27.358 43.6229 27.4865 43.6236 27.6202C43.6242 27.7539 43.6776 27.8819 43.7722 27.9764C43.8667 28.0709 43.9947 28.1243 44.1284 28.125C44.262 28.1257 44.3906 28.0736 44.4861 27.98ZM44.4861 43.5156C44.2879 43.3175 43.9667 43.3175 43.7686 43.5156C43.5704 43.7138 43.5704 44.0363 43.7686 44.2331L46.4173 46.8838C46.6154 47.0819 46.9379 47.0819 47.1367 46.8838C47.3354 46.6856 47.3348 46.3644 47.1367 46.1663L44.4861 43.5156ZM27.5148 27.98C27.6103 28.0736 27.7388 28.1257 27.8725 28.125C28.0062 28.1243 28.1342 28.0709 28.2287 27.9764C28.3232 27.8819 28.3766 27.7539 28.3773 27.6202C28.378 27.4865 28.3259 27.358 28.2323 27.2625L25.5842 24.6119C25.3861 24.415 25.0636 24.415 24.8648 24.6119C24.6667 24.81 24.6667 25.1325 24.8648 25.3313L27.5148 27.98ZM25.0154 35.7481C25.0154 35.4663 24.7886 35.2394 24.5067 35.2394H20.7598C20.4798 35.2394 20.2529 35.4663 20.2529 35.7481C20.2529 36.0281 20.4798 36.255 20.7598 36.255H24.5067C24.7886 36.255 25.0154 36.0281 25.0154 35.7481ZM27.5148 43.5156L24.8642 46.1663C24.6661 46.3644 24.6661 46.6856 24.8642 46.8838C25.0623 47.0819 25.3848 47.0819 25.5836 46.8838L28.2323 44.2331C28.4304 44.0363 28.4304 43.7138 28.2323 43.5156C28.0342 43.3175 27.7136 43.3169 27.5148 43.5156ZM51.2411 35.24H47.4942C47.2123 35.24 46.9854 35.4669 46.9854 35.7487C46.9854 36.0287 47.2123 36.2556 47.4942 36.2556H51.2411C51.5211 36.2556 51.7479 36.0287 51.7479 35.7487C51.7479 35.4669 51.5211 35.24 51.2411 35.24ZM34.5111 31.5513C34.4048 31.4838 34.2804 31.4788 34.1692 31.535C32.8211 32.2081 31.8961 33.6006 31.8961 35.2094C31.8961 36.4813 32.4736 37.6169 33.3823 38.37C33.6323 38.5775 33.7629 38.8575 33.7629 39.1831V44.2887H38.2361V39.1831C38.2361 38.8569 38.3673 38.5775 38.6167 38.37C39.5254 37.6169 40.1029 36.4813 40.1029 35.2094C40.1029 33.6006 39.1779 32.2081 37.8298 31.535C37.7167 31.4781 37.5942 31.4838 37.4879 31.5513C37.3798 31.6169 37.3198 31.725 37.3198 31.8506V34.8131C37.3198 35.5394 36.7261 36.135 35.9979 36.135C35.2717 36.135 34.6761 35.54 34.6761 34.8131V31.8506C34.6779 31.725 34.6192 31.6169 34.5111 31.5513Z" fill="white"/>
</g>
<defs>
<clipPath id="clip0_7884_965">
<rect width="32" height="32" fill="white" transform="translate(20 20)"/>
</clipPath>
</defs>
</svg>
