<svg width="72" height="72" viewBox="0 0 72 72" fill="none" xmlns="http://www.w3.org/2000/svg">
<circle cx="36" cy="36" r="36" fill="#5592EB"/>
<circle opacity="0.3" cx="36" cy="36" r="32.5" fill="#5592EB" stroke="white"/>
<path d="M49.0542 20H34.9954C33.3684 20 32.0498 21.3189 32.0498 22.9456V29.8706C32.793 30.2399 33.5961 30.6394 34.3455 31.0119L35.4922 28.7176C36.1866 27.3301 37.8792 26.7663 39.2662 27.4594C40.6561 28.1551 41.2193 29.843 40.5235 31.2332L38.4793 35.3226C38.5341 35.8653 38.4843 36.4135 38.3328 36.9375H39.6824L36.1229 46.7256C35.9116 47.3061 36.3199 47.9836 37.0042 47.9836C37.3867 47.9836 37.7467 47.7476 37.8848 47.3662L41.6773 36.9375H42.3343L46.1653 47.3694C46.3047 47.7488 46.6636 47.9836 47.0459 47.9836C47.6853 47.9836 48.1541 47.345 47.9253 46.7231L44.3316 36.9375H49.0543C50.6809 36.9375 51.9998 35.6186 51.9998 33.9919V22.9456C51.9998 21.3189 50.6809 20 49.0542 20ZM47.0455 32.9211H42.8392C42.3216 32.9211 41.9017 32.5013 41.9017 31.9836C41.9017 31.4656 42.3216 31.0461 42.8392 31.0461H47.0454C47.5636 31.0461 47.9829 31.4656 47.9829 31.9836C47.9829 32.5013 47.5636 32.9211 47.0455 32.9211ZM47.0455 29.4062H42.8392C42.3216 29.4062 41.9017 28.9869 41.9017 28.4688C41.9017 27.9512 42.3216 27.5312 42.8392 27.5312H47.0454C47.5636 27.5312 47.9829 27.9512 47.9829 28.4688C47.9829 28.9869 47.5636 29.4062 47.0455 29.4062ZM47.0455 25.8919H37.0042C36.4861 25.8919 36.0667 25.4719 36.0667 24.9544C36.0667 24.4369 36.4861 24.0169 37.0042 24.0169H47.0454C47.5635 24.0169 47.9829 24.4367 47.9829 24.9544C47.9829 25.472 47.5636 25.8919 47.0455 25.8919Z" fill="white"/>
<path d="M36.4951 36.5354C36.6645 36.0391 36.6633 35.5205 36.5203 35.0474L38.8469 30.3945C39.0784 29.9314 38.8909 29.3682 38.4277 29.1367C37.9649 28.905 37.4016 29.0928 37.1699 29.5559L35.1856 33.5242C33.9995 32.9336 32.1975 32.0376 30.7459 31.3157C29.3953 30.6441 28.4314 30.0417 26.7869 30.0417H25.9585C27.239 30.0417 28.3818 29.4524 29.1299 28.53C29.7007 27.8281 30.042 26.9336 30.042 25.9587C30.042 23.7031 28.2139 21.875 25.958 21.875C23.7031 21.875 21.875 23.7031 21.875 25.9587C21.875 27.042 22.2969 28.0264 22.9851 28.7569C23.7292 29.5481 24.7861 30.0417 25.9577 30.042C24.3869 30.042 22.8513 30.6784 21.7466 31.7861C20.6203 32.9094 20 34.406 20 36.0002V39.0128C20 40.3096 20.8421 41.4131 22.0083 41.8057V47.0459C22.0083 47.5638 22.428 47.9834 22.9458 47.9834H28.9707C29.4885 47.9834 29.9082 47.5638 29.9082 47.0459V36.5125C30.7971 36.9569 31.9649 37.5406 32.9097 38.0133C33.572 38.3443 34.3459 38.3741 35.0361 38.0933C35.7244 37.8101 36.2549 37.2464 36.4914 36.5464L36.4951 36.5354Z" fill="white"/>
</svg>
