<svg width="72" height="72" viewBox="0 0 72 72" fill="none" xmlns="http://www.w3.org/2000/svg">
<circle cx="36" cy="36" r="36" fill="#5592EB"/>
<circle opacity="0.3" cx="36" cy="36" r="32.5" fill="#5592EB" stroke="white"/>
<g clip-path="url(#clip0_7884_956)">
<path d="M50.0895 40.8057C48.4435 39.1584 46.1594 38.4605 43.2261 39.2467L32.7662 28.7762L32.9045 28.2534C33.5069 25.993 32.856 23.5634 31.2062 21.9136C29.5265 20.2325 27.1385 19.6157 24.88 20.2361C24.7218 20.2796 24.5777 20.3638 24.4622 20.4804C24.3467 20.597 24.2639 20.7419 24.222 20.9005C24.1802 21.0592 24.1807 21.226 24.2236 21.3844C24.2665 21.5427 24.3502 21.687 24.4663 21.8029L26.9848 24.3215C27.7211 25.0596 27.714 26.2417 26.9866 26.971C26.2651 27.6945 25.0522 27.6934 24.3335 26.9728L21.8145 24.4535C21.6984 24.3374 21.5538 24.2538 21.3953 24.2112C21.2367 24.1685 21.0698 24.1682 20.9111 24.2104C20.7525 24.2526 20.6077 24.3357 20.4913 24.4514C20.3749 24.5671 20.2909 24.7114 20.2478 24.8698C19.6365 27.1034 20.2379 29.5062 21.9257 31.194C23.5711 32.8406 25.8523 33.541 28.7873 32.7532L39.248 43.2237C38.4674 46.1561 39.1408 48.418 40.809 50.0862C42.4908 51.7694 44.88 52.3816 47.1335 51.7633C47.2917 51.7199 47.4358 51.6356 47.5514 51.519C47.6669 51.4024 47.7498 51.2575 47.7917 51.0989C47.8335 50.9402 47.833 50.7733 47.7901 50.615C47.7472 50.4566 47.6635 50.3123 47.5474 50.1964L45.0294 47.6784C44.2931 46.9402 44.3003 45.758 45.0276 45.0289C45.7581 44.302 46.9683 44.3136 47.6807 45.0279L50.2 47.5465C50.316 47.6626 50.4606 47.7461 50.6191 47.7888C50.7776 47.8314 50.9446 47.8317 51.1033 47.7895C51.2619 47.7473 51.4066 47.6642 51.523 47.5485C51.6394 47.4328 51.7233 47.2886 51.7665 47.1302C52.3778 44.897 51.7765 42.4935 50.0895 40.8057Z" fill="white"/>
<path d="M30.0349 36.6615L21.0979 45.5996C19.6353 47.0622 19.6353 49.4406 21.0979 50.9031C22.5605 52.3656 24.9388 52.3656 26.4013 50.9031L35.3381 41.9652L30.0349 36.6615ZM25.5206 47.9936C25.1543 48.3599 24.5612 48.3599 24.195 47.9936C23.8288 47.6274 23.8288 47.0342 24.195 46.668L29.8812 40.9807C30.2474 40.6145 30.8407 40.6145 31.2068 40.9807C31.573 41.3469 31.573 41.9401 31.2068 42.3063L25.5206 47.9936ZM51.7252 21.8908L50.109 20.2746C49.9612 20.1268 49.7682 20.0326 49.5607 20.007C49.3533 19.9815 49.1432 20.026 48.9639 20.1335L43.9922 23.1162C43.4691 23.43 43.3803 24.1517 43.8115 24.583L44.2073 24.9786L37.896 31.2641L40.5482 33.9163L46.8595 27.6308L47.4169 28.1884C47.8482 28.6196 48.57 28.5308 48.8837 28.0077L51.8664 23.036C51.9739 22.8567 52.0184 22.6466 51.9928 22.4391C51.9672 22.2316 51.873 22.0386 51.7252 21.8908Z" fill="white"/>
</g>
<defs>
<clipPath id="clip0_7884_956">
<rect width="32" height="32" fill="white" transform="translate(20 20)"/>
</clipPath>
</defs>
</svg>
