<svg width="72" height="72" viewBox="0 0 72 72" fill="none" xmlns="http://www.w3.org/2000/svg">
<circle cx="36" cy="36" r="36" fill="#5592EB"/>
<circle opacity="0.3" cx="36" cy="36" r="32.5" fill="#5592EB" stroke="white"/>
<g clip-path="url(#clip0_7884_1019)">
<path d="M39.088 35.8325C43.453 35.8325 47.0036 32.2812 47.0036 27.9163C47.0036 23.5513 43.453 20 39.088 20C34.723 20 31.1717 23.5513 31.1717 27.9163C31.1717 32.2812 34.723 35.8325 39.088 35.8325ZM38.1505 23.2631V23.0481C38.1505 22.53 38.5699 22.1106 39.088 22.1106C39.6055 22.1106 40.0255 22.53 40.0255 23.0481V23.2644C41.1411 23.5037 41.9805 24.4975 41.9805 25.6838C41.9805 26.2013 41.5605 26.6213 41.043 26.6213C40.5249 26.6213 40.1055 26.2013 40.1055 25.6838C40.1055 25.3531 39.8361 25.0837 39.5055 25.0837H38.6649C38.3342 25.0837 38.0649 25.3531 38.0649 25.6838C38.065 25.7775 38.087 25.8699 38.1292 25.9535C38.1715 26.0372 38.2327 26.1098 38.308 26.1656L39.088 26.7431L40.983 28.1456C41.6055 28.6062 41.9805 29.3431 41.9855 30.1181V30.1269C41.9899 30.7881 41.7367 31.4119 41.2717 31.8825C40.9267 32.2319 40.4955 32.4662 40.0255 32.565V32.7844C40.0255 33.3025 39.6055 33.7219 39.088 33.7219C38.5699 33.7219 38.1505 33.3025 38.1505 32.7844V32.5681C37.693 32.4706 37.2724 32.2456 36.9324 31.9094C36.4617 31.445 36.2005 30.825 36.1967 30.1637C36.1936 29.6462 36.6105 29.2238 37.128 29.2206H37.1342C37.6492 29.2206 38.0686 29.6369 38.0717 30.1525C38.0721 30.2313 38.0879 30.3092 38.1184 30.3819C38.149 30.4545 38.1935 30.5204 38.2495 30.5758C38.3056 30.6312 38.372 30.675 38.445 30.7047C38.5179 30.7343 38.5961 30.7493 38.6749 30.7487C39.1929 30.7456 38.9999 30.7467 39.5142 30.7437C39.847 30.7411 40.113 30.4711 40.1105 30.1394V30.1306C40.1092 29.9431 40.0186 29.7644 39.8674 29.6525L39.088 29.0756L37.1924 27.6731C36.5649 27.2081 36.1899 26.4644 36.1899 25.6838C36.1899 24.495 37.0317 23.5006 38.1505 23.2631ZM26.2617 40.337C26.0214 39.9204 25.4875 39.7754 25.0684 40.0173L20.6585 42.5629C20.2409 42.8046 20.0977 43.3386 20.3387 43.7568L24.8459 51.5631C25.0871 51.9806 25.6209 52.1239 26.0392 51.8829L30.449 49.3366C30.8672 49.0955 31.0099 48.5614 30.7688 48.1433L26.2617 40.337ZM51.5298 38.7787C51.1054 38.1894 50.2842 38.0562 49.6954 38.4806C47.9092 39.7675 44.4792 42.2388 44.2067 42.4356C44.0823 42.5417 43.9503 42.6384 43.8117 42.725C43.2723 43.0644 42.6467 43.2456 41.9935 43.2456H37.5029C36.9854 43.2456 36.5654 42.8263 36.5654 42.3081C36.5654 41.7894 36.986 41.3706 37.5029 41.3706H42.3054C43.011 41.3706 43.576 40.7831 43.5467 40.0763C43.5192 39.4056 42.9467 38.8856 42.2754 38.8856H38.6198C38.3723 38.6238 38.101 38.3837 37.8104 38.1694C36.811 37.4325 35.576 36.9969 34.2392 36.9969C31.8623 36.9969 29.4973 38.4944 28.5167 40.4931L32.3517 47.135H39.5454C40.9579 47.135 42.3492 46.7737 43.5735 46.0694C43.9979 45.8256 44.4523 45.5325 44.9448 45.1787C47.0085 43.6962 51.2279 40.6162 51.231 40.6144C51.821 40.1906 51.9548 39.3681 51.5298 38.7787Z" fill="white"/>
</g>
<defs>
<clipPath id="clip0_7884_1019">
<rect width="32" height="32" fill="white" transform="translate(20 20)"/>
</clipPath>
</defs>
</svg>
