<svg width="72" height="72" viewBox="0 0 72 72" fill="none" xmlns="http://www.w3.org/2000/svg">
<circle cx="36" cy="36" r="36" fill="#5592EB"/>
<circle opacity="0.3" cx="36" cy="36" r="32.5" fill="#5592EB" stroke="white"/>
<path fill-rule="evenodd" clip-rule="evenodd" d="M39.3584 29.7479C39.7429 29.9362 40.2214 30.1707 40.9479 30.2104C41.2431 30.228 41.5392 30.2208 41.8331 30.189L45.8765 36.5269C45.8143 36.6087 45.7333 36.6744 45.6404 36.7183C45.6034 36.6933 45.5661 36.6686 45.5275 36.6442C45.1797 36.4276 44.6566 36.0551 44.0508 35.6234C40.8705 33.3577 38.5421 31.819 37.5433 32.6617C35.1439 34.6858 33.6821 35.1679 33.1595 34.9661C33.0757 34.9336 32.9865 34.8735 32.9595 34.6727C32.8591 33.9202 33.7942 32.0702 36.1856 30.3064C38.1668 29.1644 38.6668 29.4094 39.3582 29.7479H39.3584ZM24.7384 36.8563C24.6882 36.9347 24.609 36.9901 24.518 37.0102C24.4271 37.0303 24.3319 37.0135 24.2533 36.9635L21.7706 35.3799C21.6922 35.3297 21.6368 35.2504 21.6167 35.1595C21.5966 35.0685 21.6134 34.9733 21.6634 34.8947L26.7204 26.9674C26.7706 26.8889 26.8499 26.8336 26.9408 26.8135C27.0317 26.7934 27.1269 26.8102 27.2055 26.8602L29.6883 28.4439C29.7664 28.4945 29.8214 28.5737 29.8414 28.6645C29.8615 28.7553 29.845 28.8503 29.7955 28.9291L24.7384 36.8563ZM26.1377 39.6819C26.3476 39.8363 26.708 39.8699 27.1844 39.7825C28.2282 38.5379 28.6235 37.6749 28.7728 37.2156C28.7136 37.0443 28.6125 36.8905 28.4786 36.7683C28.3448 36.6461 28.1825 36.5593 28.0065 36.5159C27.8534 36.4779 27.6928 36.4829 27.5425 36.5306C27.3922 36.5782 27.2579 36.6665 27.1547 36.7857C27.0491 36.9044 26.9369 37.0236 26.8282 37.139C26.2804 37.7213 25.7629 38.2712 25.8202 38.9369C25.8514 39.3 25.9583 39.5506 26.1379 39.6819H26.1377ZM27.8637 40.3344C27.8897 40.7544 28.0075 41.0668 28.2159 41.2638C28.4384 41.4731 28.7909 41.5806 29.2655 41.5844L31.8541 37.9356C31.8518 37.4513 31.6656 37.1323 31.2987 36.9877C30.7784 36.7826 30.0497 36.9741 29.6276 37.4139C29.4706 37.928 29.0392 38.9288 27.8637 40.3344ZM30.3169 42.7481C30.1371 42.6238 30.0189 42.4175 29.9569 42.1219L32.5429 38.4769C33.1307 38.3799 33.5903 38.4719 33.8172 38.7375C34.0601 39.0218 34.069 39.5331 33.8452 40.1469C33.2006 40.9287 32.6907 41.5476 32.3157 42.0037C31.9907 42.3988 31.7457 42.6962 31.623 42.845C31.0331 42.9649 30.5832 42.9325 30.3167 42.7481H30.3169ZM33.4981 44.0612C33.7213 44.0538 34.2119 43.7081 34.6815 43.0806C35.1815 42.4125 35.3836 41.7931 35.3202 41.5487C35.2435 41.2544 34.9308 41.0238 34.3898 40.8619C33.8068 41.5694 33.3407 42.1354 32.9914 42.56C32.6587 42.9644 32.4635 43.2012 32.3486 43.3406C32.5337 43.8619 32.8871 44.0813 33.4981 44.0612ZM45.7612 39.5993C46.0208 39.1969 46.1138 38.8424 46.0453 38.5181C45.9629 38.1271 45.6321 37.7458 45.0624 37.3849C44.6944 37.1559 44.161 36.7759 43.5433 36.3358C42.5129 35.6017 41.2308 34.6881 40.1191 34.0525C38.4297 33.0863 38.1107 33.3275 38.1077 33.3302C35.7221 35.3427 33.9021 36.1908 32.8443 35.7819C32.4233 35.6194 32.1563 35.2662 32.0926 34.7882C31.9184 33.4819 33.2495 31.4819 35.3606 29.8349C35.0086 29.4517 34.4425 29.5408 33.3068 29.8229C32.3322 30.0649 31.2404 30.3359 30.1702 29.9687L26.2872 36.0556C26.3413 36.1227 26.4008 36.1855 26.465 36.2431C26.4767 36.23 26.4892 36.2166 26.5009 36.2036C26.7084 35.9674 26.9763 35.7921 27.276 35.6968C27.5756 35.6014 27.8956 35.5895 28.2015 35.6624C28.6837 35.7767 29.1038 36.0715 29.3752 36.4861C30.0352 36.0339 30.9115 35.8947 31.6194 36.1736C32.2219 36.4111 32.6003 36.9091 32.7017 37.575C33.4724 37.5102 34.0941 37.7146 34.4822 38.1688C34.8796 38.634 34.9822 39.2978 34.7848 40.0702C35.5536 40.3328 36.0176 40.7552 36.1667 41.3284C36.373 42.1215 35.7112 43.1496 35.4312 43.5371C36.4777 44.2446 37.3162 44.519 37.8677 44.329C38.1831 44.2203 38.4309 43.9371 38.6069 43.4883L36.6631 42.1071C36.6162 42.0738 36.5762 42.0317 36.5456 41.983C36.515 41.9343 36.4942 41.88 36.4846 41.8233C36.4749 41.7666 36.4766 41.7085 36.4894 41.6525C36.5022 41.5964 36.526 41.5434 36.5593 41.4965C36.5926 41.4496 36.6349 41.4098 36.6836 41.3792C36.7324 41.3487 36.7867 41.3281 36.8434 41.3185C36.9001 41.309 36.9582 41.3107 37.0142 41.3237C37.0703 41.3366 37.1232 41.3605 37.1701 41.3939L39.3404 42.9364C39.8847 43.1739 40.3166 43.2177 40.6241 43.0652C40.9059 42.9252 41.1258 42.6014 41.2799 42.1027L37.7951 39.8294L38.2732 39.0963L41.9506 41.4963C42.4406 41.5888 42.8076 41.5494 43.0389 41.3738C43.2385 41.2225 43.3676 40.9481 43.4244 40.5568L38.8002 37.4312C38.7041 37.3663 38.6377 37.2658 38.6157 37.1519C38.5936 37.0379 38.6177 36.9199 38.6827 36.8238C38.7477 36.7276 38.8482 36.6612 38.9621 36.6392C39.076 36.6172 39.194 36.6413 39.2902 36.7062L44.0599 39.93C44.7732 40.075 45.3313 39.9668 45.7612 39.5993H45.7612ZM46.3377 37.3029C46.3451 37.2966 46.3525 37.2904 46.3597 37.2841L46.4676 37.4529C46.4261 37.4012 46.3827 37.351 46.3377 37.3024V37.3029ZM50.3838 35.3758C50.394 35.3309 50.3952 35.2843 50.3873 35.2389C50.3794 35.1935 50.3626 35.1501 50.3379 35.1112L45.2806 27.184C45.2301 27.106 45.1508 27.0509 45.06 27.0309C44.9692 27.0108 44.8742 27.0273 44.7955 27.0768L42.3127 28.6606C42.2343 28.7107 42.1789 28.79 42.1588 28.8809C42.1387 28.9719 42.1555 29.0671 42.2055 29.1457L47.2627 37.073C47.3129 37.1515 47.3922 37.2068 47.4831 37.2269C47.5741 37.247 47.6693 37.2302 47.7479 37.1801L50.2306 35.5964C50.2694 35.5716 50.3029 35.5393 50.3292 35.5014C50.3555 35.4636 50.374 35.4209 50.3837 35.3758H50.3838ZM29.2145 22.3187C29.1574 22.2183 29.1423 22.0994 29.1726 21.9879C29.2029 21.8764 29.276 21.7814 29.3761 21.7236C29.4761 21.6659 29.595 21.65 29.7066 21.6795C29.8183 21.7091 29.9138 21.7816 29.9722 21.8813L31.9347 25.2805C31.9639 25.3303 31.983 25.3853 31.9908 25.4425C31.9986 25.4997 31.995 25.5578 31.9803 25.6136C31.9655 25.6694 31.9399 25.7217 31.9049 25.7675C31.8698 25.8133 31.826 25.8518 31.7761 25.8806C31.7261 25.9095 31.6709 25.9282 31.6137 25.9356C31.5565 25.9431 31.4984 25.9391 31.4427 25.924C31.387 25.9089 31.3349 25.8829 31.2893 25.8475C31.2437 25.8122 31.2055 25.7682 31.177 25.718L29.2145 22.3187ZM36.4077 24.925V21C36.4077 20.884 36.4538 20.7727 36.5359 20.6906C36.6179 20.6086 36.7292 20.5625 36.8452 20.5625C36.9613 20.5625 37.0726 20.6086 37.1546 20.6906C37.2366 20.7727 37.2827 20.884 37.2827 21V24.925C37.2827 25.041 37.2366 25.1523 37.1546 25.2344C37.0726 25.3164 36.9613 25.3625 36.8452 25.3625C36.7292 25.3625 36.6179 25.3164 36.5359 25.2344C36.4538 25.1523 36.4077 25.041 36.4077 24.925ZM41.6769 24.8507L43.6394 21.4512C43.6979 21.3516 43.7933 21.2791 43.905 21.2495C44.0167 21.22 44.1356 21.2359 44.2356 21.2936C44.3357 21.3514 44.4088 21.4464 44.4391 21.5579C44.4693 21.6694 44.4543 21.7883 44.3972 21.8887L42.4347 25.2881C42.4062 25.3382 42.368 25.3822 42.3224 25.4176C42.2768 25.4529 42.2247 25.4789 42.169 25.494C42.1133 25.5092 42.0552 25.5131 41.998 25.5057C41.9407 25.4982 41.8856 25.4796 41.8356 25.4507C41.7856 25.4219 41.7419 25.3834 41.7068 25.3376C41.6718 25.2917 41.6461 25.2394 41.6314 25.1837C41.6166 25.1279 41.6131 25.0697 41.6209 25.0126C41.6287 24.9554 41.6477 24.9003 41.6769 24.8506V24.8507ZM44.3973 49.6803C44.426 49.7301 44.4447 49.785 44.4522 49.842C44.4597 49.8989 44.4559 49.9568 44.441 50.0123C44.4261 50.0678 44.4005 50.1198 44.3655 50.1654C44.3305 50.211 44.2869 50.2492 44.2371 50.278C44.1874 50.3067 44.1325 50.3253 44.0755 50.3328C44.0185 50.3403 43.9606 50.3365 43.9051 50.3217C43.8497 50.3068 43.7976 50.2811 43.752 50.2462C43.7065 50.2112 43.6682 50.1676 43.6395 50.1178L41.677 46.7184C41.6199 46.618 41.6048 46.4991 41.6351 46.3876C41.6654 46.2761 41.7385 46.1811 41.8386 46.1233C41.9386 46.0656 42.0574 46.0497 42.1691 46.0792C42.2808 46.1088 42.3763 46.1813 42.4347 46.2809L44.3972 49.6803L44.3973 49.6803ZM37.2041 47.075V51C37.2041 51.116 37.158 51.2273 37.0759 51.3094C36.9939 51.3914 36.8826 51.4375 36.7666 51.4375C36.6505 51.4375 36.5392 51.3914 36.4572 51.3094C36.3751 51.2273 36.3291 51.116 36.3291 51V47.075C36.3291 46.959 36.3751 46.8477 36.4572 46.7656C36.5392 46.6836 36.6505 46.6375 36.7666 46.6375C36.8826 46.6375 36.9939 46.6836 37.0759 46.7656C37.158 46.8477 37.2041 46.959 37.2041 47.075ZM31.9349 47.1488L29.9724 50.5482C29.9438 50.5983 29.9057 50.6424 29.8601 50.6777C29.8145 50.7131 29.7624 50.739 29.7067 50.7542C29.651 50.7693 29.5929 50.7732 29.5356 50.7658C29.4784 50.7584 29.4233 50.7397 29.3733 50.7108C29.3233 50.682 29.2796 50.6435 29.2445 50.5977C29.2095 50.5519 29.1838 50.4996 29.1691 50.4438C29.1543 50.388 29.1508 50.3298 29.1586 50.2727C29.1664 50.2155 29.1854 50.1605 29.2146 50.1107L31.1771 46.7113C31.2355 46.6116 31.331 46.5391 31.4427 46.5095C31.5544 46.48 31.6732 46.4959 31.7733 46.5536C31.8733 46.6114 31.9465 46.7064 31.9768 46.8179C32.007 46.9294 31.992 47.0483 31.9349 47.1488Z" fill="white"/>
</svg>
