<svg width="72" height="72" viewBox="0 0 72 72" fill="none" xmlns="http://www.w3.org/2000/svg">
<circle cx="36" cy="36" r="36" fill="#5592EB"/>
<circle opacity="0.3" cx="36" cy="36" r="32.5" fill="#5592EB" stroke="white"/>
<path d="M33.2321 30.3339L29.5073 31.2928L25.7316 29.2555C25.6756 29.2253 25.6168 29.2007 25.556 29.182C25.4644 29.1348 25.3675 29.0985 25.2674 29.0739C24.2281 28.8196 22.7259 29.3901 22.1217 31.1734C21.5407 32.9216 21.2882 34.2361 21.3077 35.8209C21.3156 36.4633 21.3669 37.1488 21.4611 37.9276C21.6514 38.8844 22.0702 39.4191 22.5784 39.7143C22.6825 39.8093 22.8009 39.8921 22.9338 39.9573L27.5756 42.2326L28.8319 47.6884C28.9939 48.3918 29.6196 48.8677 30.3119 48.8677C30.4248 48.8677 30.5395 48.8551 30.6542 48.8285C31.4723 48.6402 31.9828 47.8243 31.7944 47.0063L30.3757 40.8452C30.325 40.6249 30.2257 40.4187 30.0852 40.2416C29.9447 40.0645 29.7664 39.9209 29.5634 39.8214L25.7814 37.9675C25.7087 37.2721 25.726 36.5433 25.7911 35.8198C25.8044 35.671 25.8196 35.5226 25.8369 35.3747L23.8677 32.6598C23.6713 32.389 23.5921 32.0579 23.6447 31.7275C23.6974 31.3971 23.8754 31.107 24.1462 30.9106C24.3595 30.7552 24.6168 30.6716 24.8808 30.672C25.2813 30.672 25.6607 30.8654 25.8955 31.1892L26.4386 31.938C26.4456 31.9116 26.4526 31.8851 26.4588 31.8585L28.9188 33.1859C29.1344 33.3024 29.3861 33.3331 29.6234 33.2718L33.7173 32.2179C33.9671 32.1536 34.1812 31.9927 34.3124 31.7706C34.4435 31.5484 34.4811 31.2833 34.4168 31.0334C34.2827 30.5131 33.7524 30.1995 33.2321 30.3339Z" fill="white"/>
<path d="M27.1676 28.8102C28.6787 28.8102 29.9036 27.5852 29.9036 26.0742C29.9036 24.5631 28.6787 23.3382 27.1676 23.3382C25.6566 23.3382 24.4316 24.5631 24.4316 26.0742C24.4316 27.5852 25.6566 28.8102 27.1676 28.8102Z" fill="white"/>
<path d="M26.9418 36.7014L26.0142 36.8272C26.0093 37.1506 26.018 37.4711 26.0448 37.7854L29.6862 39.5703C29.7728 39.6128 29.8533 39.6636 29.9308 39.7182L30.3757 38.4768C30.4638 38.231 30.4871 37.9667 30.4434 37.7094C30.3996 37.452 30.2904 37.2102 30.1261 37.0074C30.0988 36.9738 30.0686 36.9438 30.0389 36.913L27.5326 36.8653C27.3251 36.8604 27.1221 36.8041 26.9418 36.7014ZM25.2773 41.4177L25.5279 42.9924L25.0516 44.3215C24.859 44.8588 24.988 45.4328 25.3385 45.8343H21.1913L21.993 40.798H24.0131L22.8104 40.2084C22.7117 40.1596 22.6178 40.1018 22.5298 40.0357H21.0387C20.9418 40.036 20.8489 40.0746 20.7804 40.1431C20.7118 40.2117 20.6732 40.3045 20.6729 40.4015V40.4322C20.6732 40.5291 20.7118 40.622 20.7804 40.6905C20.8489 40.7591 20.9418 40.7977 21.0387 40.798H21.2947L20 48.9312L20.6811 49.0396L21.07 46.5966H26.1016L26.4905 49.0396L27.1716 48.9312L26.7573 46.3283C27.272 46.2331 27.724 45.8754 27.9133 45.3471L27.9694 45.1906L27.3326 42.4251L25.2773 41.4177ZM25.6687 31.3534C25.5943 31.2486 25.4998 31.1596 25.3907 31.0915C25.2817 31.0235 25.1602 30.9777 25.0333 30.9569C24.9065 30.9361 24.7768 30.9406 24.6517 30.9702C24.5266 30.9998 24.4086 31.0539 24.3046 31.1294C24.2005 31.2048 24.1124 31.3002 24.0454 31.4099C23.9785 31.5196 23.9339 31.6415 23.9143 31.7686C23.8947 31.8956 23.9005 32.0253 23.9313 32.1501C23.9621 32.2749 24.0174 32.3923 24.0939 32.4957L26.7691 36.1841C26.8574 36.306 26.9729 36.4057 27.1063 36.4754C27.2397 36.545 27.3875 36.5828 27.538 36.5857L32.8478 36.687L32.8667 36.6871C33.1225 36.6862 33.3677 36.5845 33.5492 36.4042C33.7306 36.2238 33.8337 35.9792 33.8361 35.7233C33.8385 35.4675 33.74 35.221 33.5619 35.0373C33.3839 34.8536 33.1406 34.7474 32.8848 34.7417L28.0594 34.6497L25.6687 31.3534ZM43.5142 46.9503C42.6301 46.9504 41.8657 46.2901 41.7358 45.4145L41.5287 44.0184L40.9633 47.3703C40.8237 48.1982 41.3814 48.9824 42.2093 49.122C42.2949 49.1363 42.3799 49.1434 42.4639 49.1434C43.1923 49.1434 43.8357 48.6182 43.9609 47.8759L44.1357 46.8403C43.9366 46.9133 43.7262 46.9506 43.5142 46.9503ZM50.9613 40.8466C51.0582 40.8463 51.1511 40.8077 51.2196 40.7392C51.2882 40.6706 51.3268 40.5778 51.3271 40.4809V40.4501C51.3268 40.3532 51.2882 40.2603 51.2196 40.1918C51.1511 40.1232 51.0582 40.0846 50.9613 40.0843H46.9847L47.213 39.8973H44.5564L44.9075 42.2644L45.0011 41.7091L46.0541 40.8465H46.1229L44.8282 48.9797L45.5093 49.0882L45.8981 46.6451H50.9298L51.3187 49.0882L51.9998 48.9797L50.7051 40.8465L50.9613 40.8466ZM50.8087 45.8829H46.0197L46.8214 40.8466H50.0071L50.8087 45.8829Z" fill="white"/>
<path d="M44.736 28.3288C46.247 28.3288 47.472 27.1038 47.472 25.5928C47.472 24.0818 46.247 22.8568 44.736 22.8568C43.2249 22.8568 42 24.0818 42 25.5928C42 27.1038 43.2249 28.3288 44.736 28.3288Z" fill="white"/>
<path d="M48.3723 39.6177C48.8547 39.6177 49.2838 39.3923 49.5622 39.0417C49.9335 38.7228 50.2303 38.2288 50.3819 37.4665C50.7086 34.7666 50.5377 33.1692 49.7213 30.7124C49.1169 28.9291 47.6147 28.3586 46.5754 28.6129C45.5364 28.8669 45.0734 30.3133 45.4169 31.5252C45.5043 31.9825 45.6099 32.4939 45.7122 33.0368L46.0709 30.8987C46.1189 30.6063 46.2694 30.3406 46.4954 30.1491C46.7214 29.9575 47.0082 29.8526 47.3045 29.8532C47.3741 29.8532 47.4443 29.859 47.5135 29.8707C47.8433 29.926 48.132 30.1065 48.3262 30.379C48.5204 30.6515 48.5969 30.9832 48.5415 31.3131L47.7511 36.0251C47.6991 36.3412 47.5275 36.6253 47.2719 36.8184C47.0163 37.0116 46.6961 37.099 46.3778 37.0627C46.0402 37.026 45.6517 37.0065 45.2553 37.0065C43.6624 37.0065 42.4147 37.2953 41.9178 37.7793C41.6843 38.0075 41.3706 38.135 41.0441 38.1343C41.0132 38.1343 40.9827 38.132 40.9521 38.1298C40.9535 38.1934 40.9576 38.2572 40.967 38.3209L42.0129 45.3736C42.1249 46.1285 42.7737 46.6709 43.5146 46.6709C43.5888 46.6709 43.6639 46.6655 43.7396 46.6542C44.5699 46.531 45.1432 45.758 45.0201 44.9277L44.2327 39.6179L48.3723 39.6177Z" fill="white"/>
<path d="M41.0433 37.8545C41.2968 37.8548 41.5404 37.7558 41.7218 37.5788C42.5997 36.7239 45.0626 36.6382 46.408 36.7846C46.919 36.8415 47.3891 36.4879 47.4745 35.9786L48.2649 31.2666C48.3076 31.0122 48.2475 30.7512 48.0977 30.5411C47.948 30.3311 47.721 30.189 47.4665 30.1463C47.3405 30.1252 47.2116 30.129 47.0871 30.1577C46.9626 30.1863 46.8449 30.2392 46.7409 30.3134C46.6369 30.3875 46.5484 30.4815 46.4807 30.5898C46.413 30.6981 46.3673 30.8188 46.3462 30.9448L45.7013 34.7891C44.3024 34.7433 41.7242 34.8606 40.3645 36.1847C40.2258 36.3197 40.1306 36.493 40.0909 36.6824C40.0513 36.8719 40.069 37.0688 40.1419 37.2481C40.2148 37.4273 40.3395 37.5808 40.5001 37.6888C40.6606 37.7969 40.8497 37.8546 41.0433 37.8545Z" fill="white"/>
</svg>
