<svg width="72" height="72" viewBox="0 0 72 72" fill="none" xmlns="http://www.w3.org/2000/svg">
<circle cx="36" cy="36" r="36" fill="#5592EB"/>
<circle opacity="0.3" cx="36" cy="36" r="32.5" fill="#5592EB" stroke="white"/>
<path d="M49.1921 33.2861L36.7116 20.8038C35.9755 20.0696 34.7849 20.0782 34.0584 20.8029C33.3279 21.5353 33.3279 22.7246 34.0584 23.4561L46.5407 35.9375C47.272 36.6688 48.4608 36.6688 49.1921 35.9375C49.9254 35.2043 49.9254 34.0192 49.1921 33.2861ZM33.1325 25.1816L33.0385 25.6524C32.3769 28.9623 30.7687 32.1068 28.5937 34.6553L35.3841 41.4457C37.9324 39.2711 41.0335 37.6198 44.3435 36.9573L44.8152 36.8634L33.1325 25.1816ZM27.3487 36.0618L22.7079 40.7017C21.6114 41.7983 21.6068 43.5785 22.7079 44.6796L25.3593 47.331C26.4559 48.4276 28.2361 48.4321 29.3372 47.331L33.9776 42.6906L27.3487 36.0618ZM28.0116 43.354C27.6454 43.7202 27.0521 43.7202 26.6859 43.354C26.3197 42.9878 26.3197 42.3945 26.6859 42.0283L28.0116 40.7026C28.3778 40.3364 28.9711 40.3364 29.3373 40.7026C29.7035 41.0688 29.7035 41.6621 29.3373 42.0283L28.0116 43.354ZM37.8919 47.8299L39.1672 46.5546C40.2684 45.4536 40.2648 43.6733 39.1673 42.5776L38.22 41.6297C37.6965 41.9814 37.1965 42.3635 36.7104 42.7712L37.8416 43.9042C38.2069 44.2676 38.2095 44.8591 37.8416 45.2289L36.5452 46.5253L34.6401 44.6795L31.9886 47.331L36.2422 51.4527C36.968 52.1804 38.1599 52.1846 38.8926 51.4517C39.6241 50.7202 39.6241 49.531 38.8926 48.7994L37.8919 47.8299ZM41.6793 20C41.1611 20 40.7418 20.4193 40.7418 20.9375V22.8125C40.7418 23.3307 41.1611 23.75 41.6793 23.75C42.1975 23.75 42.6168 23.3307 42.6168 22.8125V20.9375C42.6168 20.4193 42.1975 20 41.6793 20ZM49.1793 27.5H47.3043C46.7861 27.5 46.3668 27.9193 46.3668 28.4375C46.3668 28.9557 46.7861 29.375 47.3043 29.375H49.1793C49.6975 29.375 50.1168 28.9557 50.1168 28.4375C50.1168 27.9193 49.6975 27.5 49.1793 27.5ZM47.9671 22.1496C47.6009 21.7834 47.0076 21.7834 46.6414 22.1496L44.7664 24.0246C44.4002 24.3908 44.4002 24.9841 44.7664 25.3503C45.1326 25.7165 45.7259 25.7166 46.0921 25.3503L47.9671 23.4753C48.3333 23.1091 48.3333 22.5158 47.9671 22.1496Z" fill="white"/>
</svg>
