<svg width="72" height="72" viewBox="0 0 72 72" fill="none" xmlns="http://www.w3.org/2000/svg">
<circle cx="36" cy="36" r="36" fill="#5592EB"/>
<circle opacity="0.3" cx="36" cy="36" r="32.5" fill="#5592EB" stroke="white"/>
<g clip-path="url(#clip0_7884_948)">
<path d="M28.4812 38.2832C28.5803 38.1338 28.6824 37.9871 28.7913 37.844L29.0133 37.5524L28.7532 37.4007C27.8623 36.8813 26.8376 36.6068 25.789 36.6068C22.597 36.6066 20 39.1363 20 42.2453V43.9779C20 44.2983 20.2686 44.5591 20.599 44.5591H27.0763V42.921C27.0763 42.7322 27.0848 42.5326 27.1028 42.293L27.1116 42.1778C27.1299 41.9688 27.156 41.7606 27.1897 41.5536L27.1948 41.5261C27.2322 41.3049 27.2783 41.0853 27.3331 40.8678C27.3877 40.6541 27.4506 40.4426 27.5219 40.2338L27.2668 40.1496L27.5372 40.1886C27.6785 39.7813 27.8508 39.3854 28.0526 39.0044L28.0967 38.921C28.1912 38.7468 28.2919 38.5761 28.3986 38.4091L28.4812 38.2832ZM25.789 35.1668C27.477 35.1668 28.8503 33.8299 28.8503 32.1865C28.8503 30.5431 27.477 29.2062 25.789 29.2062C24.101 29.2062 22.7278 30.5431 22.7278 32.1868C22.7278 33.8299 24.101 35.1668 25.7891 35.1668L25.789 35.1668ZM44.0968 42.4007C44.092 42.3197 44.0856 42.2389 44.0777 42.1582C44.0724 42.1043 44.0648 42.0508 44.0583 41.9972C44.0502 41.9255 44.0408 41.854 44.0303 41.7827C44.0219 41.7275 44.0116 41.6723 44.0021 41.6171C43.99 41.5478 43.9779 41.4785 43.964 41.4097C43.9532 41.3563 43.9408 41.3031 43.9287 41.2497C43.9132 41.1796 43.8966 41.1097 43.879 41.04C43.8665 40.9903 43.8526 40.9409 43.839 40.8918C43.8186 40.8183 43.7974 40.7449 43.7748 40.6723C43.7612 40.6287 43.7468 40.5851 43.7326 40.5418C43.7067 40.4631 43.6795 40.385 43.6513 40.3074C43.6377 40.2711 43.6243 40.2351 43.6105 40.1988C43.5778 40.1139 43.5435 40.0296 43.5076 39.946C43.4958 39.918 43.4838 39.8902 43.4716 39.8624C43.4309 39.7704 43.3885 39.6792 43.3443 39.5889C43.335 39.57 43.3259 39.5511 43.3166 39.5324C43.2673 39.4336 43.2159 39.3359 43.1624 39.2394C43.1568 39.2291 43.151 39.2187 43.1455 39.2084C43.0866 39.1034 43.0253 38.9998 42.9615 38.8976L42.958 38.8918C41.5563 36.6489 39.0218 35.1481 36.1339 35.1481C33.6665 35.1481 31.4573 36.2444 29.9919 37.9624L29.9591 38.0012C29.892 38.0811 29.8264 38.1624 29.7625 38.2449C29.7482 38.2633 29.7335 38.2822 29.7191 38.3011C29.6614 38.3772 29.6051 38.4542 29.5501 38.5322C29.5314 38.5587 29.5128 38.5849 29.4946 38.6118C29.447 38.6817 29.4005 38.7523 29.355 38.8235C29.3323 38.8593 29.3091 38.8946 29.2873 38.9306C29.2499 38.9911 29.2144 39.0526 29.1789 39.1138C29.1514 39.1615 29.1232 39.2086 29.097 39.2567C29.072 39.3019 29.0488 39.348 29.0246 39.3941C28.9908 39.4586 28.9566 39.5226 28.9246 39.5882C28.9223 39.5924 28.9206 39.5969 28.9183 39.6015C28.7248 40.0003 28.5662 40.4152 28.4445 40.8414C28.4402 40.8565 28.4357 40.8714 28.4314 40.8863C28.4067 40.9761 28.3836 41.0663 28.3621 41.1569C28.3553 41.1849 28.3485 41.2129 28.3422 41.2406C28.3234 41.3234 28.306 41.4065 28.29 41.4898C28.2824 41.5284 28.2756 41.567 28.2688 41.6055C28.2554 41.6813 28.2432 41.7574 28.2321 41.8336C28.2248 41.8844 28.2181 41.9353 28.2121 41.9863C28.2038 42.0531 28.1955 42.1196 28.1889 42.1867C28.1821 42.2552 28.1776 42.324 28.1726 42.3928C28.169 42.4447 28.1642 42.4967 28.1617 42.5488C28.1557 42.672 28.1519 42.796 28.1519 42.9205V45.3575C28.1519 45.7214 28.4586 46.0173 28.8351 46.0173H43.4336C43.8101 46.0173 44.1168 45.7214 44.1168 45.3575V42.921C44.1168 42.7925 44.1132 42.6645 44.1066 42.5375C44.1044 42.4919 44.0999 42.4463 44.0968 42.4007ZM35.9472 33.469C38.0951 33.469 39.8424 31.7687 39.8424 29.6789C39.8424 27.5892 38.0951 25.8889 35.9472 25.8889C33.7993 25.8889 32.0521 27.5892 32.0521 29.6789C32.0521 31.7687 33.7996 33.469 35.9472 33.469ZM46.2108 36.2059C45.0749 36.2059 43.9723 36.5282 43.023 37.1383L42.7718 37.2996L42.9618 37.528C43.3882 38.0404 43.7533 38.601 44.0495 39.1983L44.0626 39.2253C44.1172 39.3366 44.1697 39.4495 44.2208 39.5655L44.2397 39.6088C44.2876 39.7204 44.3332 39.8329 44.3844 39.9664L44.3942 39.9914C44.4903 40.248 44.5736 40.5093 44.6439 40.7742L44.6598 40.8387C44.6872 40.944 44.7123 41.05 44.7352 41.1564L44.7626 41.2938C44.79 41.4297 44.8136 41.5663 44.8335 41.7035C44.8455 41.7859 44.8567 41.8683 44.866 41.952C44.8718 42.0039 44.8781 42.0556 44.8831 42.1075C44.8919 42.197 44.8982 42.287 44.9037 42.3772L44.9128 42.5128C44.9194 42.6481 44.9237 42.7839 44.9237 42.9203V44.1577H51.401C51.7314 44.1577 52.0001 43.8968 52.0001 43.5763V41.8437C51.9998 38.7353 49.4028 36.2059 46.2108 36.2059H46.2108ZM46.2108 34.9052C47.8987 34.9052 49.272 33.5683 49.272 31.9249C49.272 30.2815 47.8987 28.9446 46.2107 28.9446C44.5227 28.9446 43.1495 30.2815 43.1495 31.9249C43.1495 33.5683 44.5227 34.9052 46.2108 34.9052Z" fill="white"/>
</g>
<defs>
<clipPath id="clip0_7884_948">
<rect width="32" height="32" fill="white" transform="translate(20 20)"/>
</clipPath>
</defs>
</svg>
