<svg width="72" height="72" viewBox="0 0 72 72" fill="none" xmlns="http://www.w3.org/2000/svg">
<circle cx="36" cy="36" r="36" fill="#5592EB"/>
<circle opacity="0.3" cx="36" cy="36" r="32.5" fill="#5592EB" stroke="white"/>
<path fill-rule="evenodd" clip-rule="evenodd" d="M45.2 39.0512H38.1909C38.7693 37.3157 39.0766 35.8549 39.1273 34.6094C39.2469 31.6711 37.8595 30.5082 36.6746 30.0494C36.6251 30.0299 36.5735 30.0161 36.5209 30.0081C35.6028 29.863 35.276 30.295 35.0594 30.7831L35.031 30.8471C34.9992 30.9172 34.9785 30.9918 34.9695 31.0682C34.6765 33.5748 33.6062 35.9268 31.9086 37.7942V51.7973C32.098 51.8666 32.2914 51.9244 32.4878 51.9701C32.541 51.9826 32.5954 51.9894 32.65 51.9902C33.2368 51.9964 33.9361 51.9996 34.7428 51.9996C35.5474 51.9996 36.4585 51.9964 37.4695 51.9902H44.0725C44.4586 51.9902 44.8378 51.8877 45.1712 51.6932C45.5047 51.4986 45.7805 51.2189 45.9704 50.8828C46.1603 50.5466 46.2575 50.1661 46.2521 49.78C46.2466 49.394 46.1387 49.0163 45.9394 48.6857C46.3801 48.3518 46.6773 47.8628 46.7705 47.3178C46.8638 46.7729 46.7461 46.2129 46.4415 45.7515C46.8692 45.3888 47.1404 44.8751 47.1987 44.3174C47.2571 43.7597 47.098 43.201 46.7546 42.7577C47.0557 42.4515 47.2596 42.0632 47.3407 41.6414C47.4218 41.2197 47.3764 40.7834 47.2103 40.3874C47.0442 39.9914 46.7647 39.6533 46.407 39.4156C46.0494 39.1779 45.6294 39.0512 45.2 39.0515V39.0512ZM30.4433 26.48C30.3989 26.3433 30.3161 26.2221 30.2049 26.131C30.0937 26.0399 29.9586 25.9827 29.8158 25.9661L27.7683 25.7305L26.912 23.8573C26.8525 23.7263 26.7565 23.6152 26.6356 23.5372C26.5146 23.4593 26.3737 23.4179 26.2298 23.4179C26.0859 23.4179 25.9451 23.4593 25.8241 23.5372C25.7031 23.6152 25.6071 23.7263 25.5476 23.8573L24.6914 25.7305L22.644 25.9661C22.5011 25.9825 22.366 26.0396 22.2547 26.1306C22.1434 26.2217 22.0606 26.3428 22.0162 26.4795C21.9718 26.6162 21.9676 26.7629 22.0041 26.9019C22.0407 27.041 22.1165 27.1666 22.2224 27.2638L23.74 28.6575L23.3315 30.6774C23.3032 30.8182 23.316 30.9642 23.3682 31.0979C23.4205 31.2317 23.51 31.3477 23.6262 31.4322C23.7424 31.5166 23.8804 31.566 24.0237 31.5743C24.1671 31.5827 24.3099 31.5498 24.4351 31.4795L26.2296 30.4663L28.0245 31.4795C28.1497 31.5501 28.2926 31.5833 28.4361 31.5751C28.5796 31.5669 28.7177 31.5175 28.834 31.433C28.9503 31.3485 29.0399 31.2324 29.092 31.0984C29.1442 30.9644 29.1567 30.8183 29.1282 30.6774L28.7196 28.6576L30.2373 27.2639C30.3431 27.1667 30.4188 27.0412 30.4553 26.9022C30.4918 26.7633 30.4876 26.6167 30.4432 26.4801L30.4433 26.48ZM49.9829 26.48C50.0273 26.6167 50.0315 26.7632 49.995 26.9021C49.9585 27.0411 49.8829 27.1666 49.7771 27.2638L48.2593 28.6575L48.6679 30.6774C48.6964 30.8182 48.6839 30.9644 48.6317 31.0983C48.5796 31.2323 48.49 31.3484 48.3737 31.4329C48.2575 31.5174 48.1193 31.5667 47.9758 31.575C47.8323 31.5832 47.6895 31.5501 47.5643 31.4794L45.7698 30.4662L43.9751 31.4794C43.8499 31.5501 43.7071 31.5833 43.5636 31.575C43.42 31.5668 43.2819 31.5175 43.1656 31.433C43.0493 31.3485 42.9598 31.2323 42.9076 31.0983C42.8555 30.9644 42.8429 30.8183 42.8715 30.6774L43.28 28.6575L41.7624 27.2638C41.6565 27.1666 41.5807 27.041 41.5441 26.9019C41.5076 26.7629 41.5118 26.6162 41.5562 26.4795C41.6006 26.3428 41.6834 26.2217 41.7947 26.1306C41.906 26.0396 42.0411 25.9825 42.184 25.9661L44.2308 25.7305L45.0874 23.8573C45.1469 23.7263 45.2428 23.6152 45.3638 23.5373C45.4848 23.4593 45.6256 23.4179 45.7695 23.4179C45.9134 23.4179 46.0542 23.4593 46.1752 23.5373C46.2961 23.6152 46.3921 23.7263 46.4516 23.8573L47.3082 25.7305L49.3551 25.9661C49.498 25.9826 49.6331 26.0399 49.7443 26.131C49.8556 26.2221 49.9383 26.3433 49.9826 26.48H49.9829ZM41.0481 23.6687C41.0036 23.5318 40.9209 23.4105 40.8097 23.319C40.6985 23.2276 40.5634 23.1699 40.4205 23.1527L37.7846 22.852L36.6817 20.4369C36.6215 20.3066 36.5253 20.1962 36.4044 20.1189C36.2836 20.0416 36.143 20.0005 35.9995 20.0005C35.856 20.0005 35.7155 20.0416 35.5947 20.1189C35.4738 20.1962 35.3776 20.3066 35.3174 20.4369L34.2144 22.8518L31.5786 23.1525C31.4359 23.1693 31.301 23.2266 31.1898 23.3178C31.0787 23.4089 30.996 23.53 30.9516 23.6667C30.9073 23.8034 30.903 23.95 30.9394 24.089C30.9759 24.228 31.0514 24.3537 31.1571 24.4511L33.1112 26.2462L32.5851 28.8462C32.5566 28.9871 32.5692 29.1332 32.6214 29.2671C32.6736 29.401 32.7632 29.5171 32.8795 29.6015C32.9957 29.686 33.1338 29.7353 33.2773 29.7435C33.4208 29.7517 33.5636 29.7185 33.6888 29.6479L35.9995 28.3445L38.3103 29.648C38.4354 29.7186 38.5782 29.7518 38.7217 29.7436C38.8652 29.7353 39.0032 29.6861 39.1195 29.6016C39.2358 29.5171 39.3253 29.4011 39.3775 29.2672C39.4297 29.1333 39.4423 28.9872 39.4139 28.8464L38.8879 26.2464L40.842 24.4511C40.9478 24.3542 41.0235 24.2289 41.06 24.0901C41.0966 23.9514 41.0925 23.805 41.0483 23.6685L41.0481 23.6687ZM30.4086 39.1869C30.2766 38.9769 30.0934 38.8038 29.8763 38.6838C29.6592 38.5638 29.4152 38.5008 29.1671 38.5007H23.9903C23.6012 38.501 23.228 38.6557 22.9528 38.9309C22.6776 39.206 22.5228 39.5791 22.5223 39.9682V50.5312C22.5227 50.9205 22.6774 51.2938 22.9526 51.5692C23.2278 51.8445 23.601 51.9995 23.9903 52H29.1671C29.4151 51.9999 29.659 51.9369 29.8761 51.817C30.0932 51.6971 30.2764 51.5241 30.4086 51.3143V39.1869ZM24.4193 41.2556C24.4193 41.0567 24.4983 40.8659 24.6389 40.7253C24.7796 40.5846 24.9704 40.5056 25.1693 40.5056H25.7197C25.9186 40.5056 26.1094 40.5846 26.25 40.7253C26.3907 40.8659 26.4697 41.0567 26.4697 41.2556C26.4697 41.4545 26.3907 41.6453 26.25 41.7859C26.1094 41.9266 25.9186 42.0056 25.7197 42.0056H25.1693C25.0708 42.0056 24.9733 41.9862 24.8823 41.9485C24.7913 41.9109 24.7086 41.8556 24.639 41.786C24.5693 41.7163 24.5141 41.6336 24.4764 41.5426C24.4387 41.4516 24.4193 41.3541 24.4193 41.2556Z" fill="white"/>
</svg>
